<svg width="166" height="27" viewBox="0 0 166 27" fill="none" xmlns="http://www.w3.org/2000/svg">
<path d="M37.5188 21.8133V3.49011H42.3614V10.2959H49.4289V3.49011H54.2714V21.8133H49.4289V14.7458H42.3614V21.8133H37.5188Z" fill="white"/>
<path d="M57.1385 4.53715C57.1385 3.90893 57.3741 3.38541 57.8453 2.9666C58.3164 2.53033 58.9098 2.31219 59.6252 2.31219C60.3407 2.31219 60.934 2.53033 61.4052 2.9666C61.8764 3.38541 62.1119 3.90893 62.1119 4.53715C62.1119 5.14793 61.8764 5.67145 61.4052 6.10771C60.934 6.54398 60.3407 6.76211 59.6252 6.76211C58.9098 6.76211 58.3164 6.54398 57.8453 6.10771C57.3741 5.67145 57.1385 5.14793 57.1385 4.53715ZM57.4003 21.8133V8.20179H61.8502V21.8133H57.4003Z" fill="white"/>
<path d="M65.8361 19.7454C64.6669 18.454 64.0823 16.7875 64.0823 14.7458C64.0823 12.7041 64.6669 11.0375 65.8361 9.74617C67.0053 8.45482 68.4275 7.80915 70.1028 7.80915C71.3069 7.80915 72.3452 8.15816 73.2177 8.85619C73.6191 9.1703 73.9332 9.51931 74.1601 9.90323H74.4218V8.20179H78.8717V26.7867H65.9146V23.253H74.4218V19.7192H74.1601C73.9157 20.1031 73.6016 20.4347 73.2177 20.7139C72.3626 21.3596 71.3243 21.6824 70.1028 21.6824C68.4275 21.6824 67.0053 21.0367 65.8361 19.7454ZM69.4484 12.4423C68.9249 13.0007 68.6631 13.7685 68.6631 14.7458C68.6631 15.723 68.9249 16.4908 69.4484 17.0493C69.9719 17.6077 70.6699 17.8869 71.5425 17.8869C72.415 17.8869 73.113 17.6077 73.6365 17.0493C74.16 16.4908 74.4218 15.723 74.4218 14.7458C74.4218 13.7685 74.16 13.0007 73.6365 12.4423C73.113 11.8839 72.415 11.6047 71.5425 11.6047C70.6699 11.6047 69.9719 11.8839 69.4484 12.4423Z" fill="white"/>
<path d="M81.4771 21.8133V3.49011H85.927V10.0341H86.1887C86.433 9.61529 86.7472 9.24883 87.1311 8.93472C88.021 8.18434 89.0594 7.80915 90.246 7.80915C91.8515 7.80915 93.0992 8.29777 93.9892 9.27501C94.8966 10.2348 95.3503 11.6221 95.3503 13.437V21.8133H90.9004V14.0914C90.9004 13.3061 90.691 12.6953 90.2722 12.2591C89.8534 11.8228 89.2775 11.6047 88.5446 11.6047C87.7942 11.6047 87.166 11.8839 86.6599 12.4423C86.1713 12.9833 85.927 13.7075 85.927 14.6149V21.8133H81.4771Z" fill="white"/>
<path d="M105.173 26.7867V8.20179H109.623V10.0341H109.885C110.129 9.63274 110.461 9.26628 110.88 8.93472C111.84 8.18434 112.86 7.80915 113.942 7.80915C115.618 7.80915 117.04 8.47228 118.209 9.79853C119.378 11.1073 119.963 12.8437 119.963 15.0075C119.963 17.1714 119.378 18.9165 118.209 20.2427C117.04 21.5515 115.618 22.2059 113.942 22.2059C112.843 22.2059 111.822 21.8395 110.88 21.1065C110.461 20.775 110.129 20.3998 109.885 19.981H109.623V26.7867H105.173ZM110.409 12.4947C109.885 13.088 109.623 13.9256 109.623 15.0075C109.623 16.0895 109.885 16.9271 110.409 17.5204C110.932 18.1138 111.63 18.4104 112.503 18.4104C113.375 18.4104 114.073 18.1138 114.597 17.5204C115.12 16.9271 115.382 16.0895 115.382 15.0075C115.382 13.9256 115.12 13.088 114.597 12.4947C114.073 11.9013 113.375 11.6047 112.503 11.6047C111.63 11.6047 110.932 11.9013 110.409 12.4947Z" fill="white"/>
<path d="M123.275 20.2427C122.106 18.9165 121.521 17.1714 121.521 15.0075C121.521 12.8437 122.106 11.1073 123.275 9.79853C124.444 8.47228 125.866 7.80915 127.542 7.80915C128.624 7.80915 129.644 8.18434 130.604 8.93472C131.006 9.26628 131.337 9.63274 131.599 10.0341H131.861V8.20179H136.311V21.8133H131.861V19.981H131.599C131.355 20.3998 131.023 20.775 130.604 21.1065C129.662 21.8395 128.641 22.2059 127.542 22.2059C125.866 22.2059 124.444 21.5515 123.275 20.2427ZM126.887 12.4947C126.364 13.088 126.102 13.9256 126.102 15.0075C126.102 16.0895 126.364 16.9271 126.887 17.5204C127.411 18.1138 128.109 18.4104 128.981 18.4104C129.854 18.4104 130.552 18.1138 131.075 17.5204C131.599 16.9271 131.861 16.0895 131.861 15.0075C131.861 13.9256 131.599 13.088 131.075 12.4947C130.552 11.9013 129.854 11.6047 128.981 11.6047C128.109 11.6047 127.411 11.9013 126.887 12.4947Z" fill="white"/>
<path d="M138.131 17.3634H142.581C142.65 17.6251 142.799 17.8695 143.026 18.0963C143.497 18.5675 144.177 18.8031 145.067 18.8031C146.289 18.8031 146.9 18.4977 146.9 17.8869C146.9 17.6077 146.725 17.3896 146.376 17.2325C146.027 17.058 145.504 16.8835 144.806 16.709C144.23 16.5694 143.854 16.4821 143.68 16.4472C143.505 16.4123 143.139 16.3163 142.581 16.1593C142.022 15.9848 141.621 15.8365 141.376 15.7143C141.15 15.5747 140.827 15.3827 140.408 15.1384C140.007 14.8767 139.71 14.6149 139.518 14.3531C139.343 14.0739 139.178 13.7336 139.021 13.3323C138.864 12.9135 138.785 12.4685 138.785 11.9973C138.785 10.8456 139.3 9.8596 140.329 9.03942C141.359 8.21924 142.807 7.80915 144.675 7.80915C147.013 7.80915 148.863 8.57698 150.224 10.1126C150.765 10.7758 151.14 11.5349 151.35 12.3899H147.031C146.926 12.1107 146.804 11.8926 146.664 11.7355C146.263 11.2993 145.687 11.0811 144.936 11.0811C143.889 11.0811 143.366 11.3865 143.366 11.9973C143.366 12.294 143.54 12.5208 143.889 12.6779C144.238 12.8349 144.771 12.9833 145.486 13.1229C147.284 13.5417 148.496 13.9082 149.125 14.2223C150.695 14.9901 151.48 16.168 151.48 17.756C151.48 19.0125 150.922 20.0682 149.805 20.9233C148.706 21.7784 147.126 22.2059 145.067 22.2059C142.537 22.2059 140.609 21.4032 139.282 19.7978C138.689 19.0823 138.305 18.2708 138.131 17.3634Z" fill="white"/>
<path d="M152.65 17.3634H157.1C157.17 17.6251 157.318 17.8695 157.545 18.0963C158.016 18.5675 158.697 18.8031 159.587 18.8031C160.808 18.8031 161.419 18.4977 161.419 17.8869C161.419 17.6077 161.245 17.3896 160.896 17.2325C160.547 17.058 160.023 16.8835 159.325 16.709C158.749 16.5694 158.374 16.4821 158.199 16.4472C158.025 16.4123 157.658 16.3163 157.1 16.1593C156.542 15.9848 156.14 15.8365 155.896 15.7143C155.669 15.5747 155.346 15.3827 154.927 15.1384C154.526 14.8767 154.229 14.6149 154.037 14.3531C153.863 14.0739 153.697 13.7336 153.54 13.3323C153.383 12.9135 153.305 12.4685 153.305 11.9973C153.305 10.8456 153.819 9.8596 154.849 9.03942C155.879 8.21924 157.327 7.80915 159.194 7.80915C161.533 7.80915 163.382 8.57698 164.743 10.1126C165.284 10.7758 165.66 11.5349 165.869 12.3899H161.55C161.445 12.1107 161.323 11.8926 161.184 11.7355C160.782 11.2993 160.206 11.0811 159.456 11.0811C158.409 11.0811 157.885 11.3865 157.885 11.9973C157.885 12.294 158.06 12.5208 158.409 12.6779C158.758 12.8349 159.29 12.9833 160.006 13.1229C161.803 13.5417 163.016 13.9082 163.644 14.2223C165.215 14.9901 166 16.168 166 17.756C166 19.0125 165.441 20.0682 164.325 20.9233C163.225 21.7784 161.646 22.2059 159.587 22.2059C157.056 22.2059 155.128 21.4032 153.802 19.7978C153.209 19.0823 152.825 18.2708 152.65 17.3634Z" fill="white"/>
<path fill-rule="evenodd" clip-rule="evenodd" d="M5.2352 5.2352V20.9408H20.9408L5.2352 5.2352ZM0 0V26.176H26.176V0H0Z" fill="#FF6E30"/>
</svg>
