<svg width="20" height="20" viewBox="0 0 20 20" fill="none" xmlns="http://www.w3.org/2000/svg">
<path d="M19.929 18.2509L15.8829 14.6859C17.0728 13.1011 17.7165 11.1634 17.7165 9.12543C17.7165 6.6859 16.7923 4.39846 15.1211 2.67375C13.4498 0.949044 11.2234 0 8.85827 0C6.49311 0 4.26673 0.952086 2.59547 2.67375C0.92126 4.39541 0 6.6859 0 9.12543C0 11.5619 0.924213 13.8554 2.59547 15.5771C4.26673 17.3018 6.49016 18.2509 8.85827 18.2509C10.8366 18.2509 12.7146 17.5877 14.253 16.3649L18.2991 19.9269C18.3216 19.9501 18.3483 19.9685 18.3777 19.981C18.4071 19.9935 18.4386 20 18.4704 20C18.5022 20 18.5337 19.9935 18.5631 19.981C18.5924 19.9685 18.6191 19.9501 18.6416 19.9269L19.929 18.6037C19.9515 18.5805 19.9694 18.553 19.9816 18.5228C19.9937 18.4925 20 18.46 20 18.4273C20 18.3945 19.9937 18.3621 19.9816 18.3318C19.9694 18.3015 19.9515 18.274 19.929 18.2509ZM13.5354 13.9437C12.2835 15.2303 10.624 15.9391 8.85827 15.9391C7.09252 15.9391 5.43307 15.2303 4.1811 13.9437C2.93209 12.6539 2.24409 10.9444 2.24409 9.12543C2.24409 7.30643 2.93209 5.59389 4.1811 4.3072C5.43307 3.02052 7.09252 2.31177 8.85827 2.31177C10.624 2.31177 12.2864 3.01747 13.5354 4.3072C14.7844 5.59693 15.4724 7.30643 15.4724 9.12543C15.4724 10.9444 14.7844 12.657 13.5354 13.9437Z" fill="white"/>
</svg>
